# xmcd
#
# Track frame offsets:
#	150
#	26920
#	32480
#	55091
#	64133
#	70673
#	90656
#	96844
#	113182
#	125127
#	139322
#	144025
#	161526
#	167577
#	197234
#	200225
#	219644
#	224895
#	240353
#	252910
#
# Disc length: 3620 seconds
#
# Revision: 0
# Processed by: cddbd v1.5.2PL0 Copyright (c) Steve Scherf et al.
# Submitted via: audiograbber 1.83.01
#
DISCID=320e2214
DTITLE=Georg Danzer - Und manchmal kann's auch regnen Disc 1
DYEAR=2007
DGENRE=Austropop
TTITLE0=Elfi
TTITLE1=Vorstellung Dieter Kolbeck und Ulli Bäer 
TTITLE2=Von Scheibbs bis nach Nebraska
TTITLE3=Ehren - Scheibbser
TTITLE4=Zwei Krawatten
TTITLE5=Des is mei Frau
TTITLE6=Wieso g'rad Gmunden
TTITLE7=Piercing in Gmunden
TTITLE8=St. Johann - Park
TTITLE9=Nur a klana Bua im Winter
TTITLE10=Bandvorstellung
TTITLE11=Alles was i brauch
TTITLE12=Begrüssung Christian Becker
TTITLE13=Mei Leb'n
TTITLE14=Zwei Sorten von Liebesliedern
TTITLE15=Ollas Leiwaund
TTITLE16=Begrüssung Andy Baum
TTITLE17=Furt von dir
TTITLE18=Man muss tierisch aufpassen
TTITLE19=Schau Schatzi 
EXTD=Konzert Wiener Stadthalle 16.04.2007
EXTT0=
EXTT1=
EXTT2=
EXTT3=
EXTT4=
EXTT5=
EXTT6=
EXTT7=
EXTT8=
EXTT9=
EXTT10=
EXTT11=
EXTT12=
EXTT13=
EXTT14=
EXTT15=
EXTT16=
EXTT17=
EXTT18=
EXTT19=
PLAYORDER=
